<?xml version="1.0" encoding="iso-8859-1"?>
<!-- Generator: Adobe Illustrator 18.0.0, SVG Export Plug-In . SVG Version: 6.00 Build 0)  -->
<!DOCTYPE svg PUBLIC "-//W3C//DTD SVG 1.1//EN" "http://www.w3.org/Graphics/SVG/1.1/DTD/svg11.dtd">
<svg version="1.1" id="Capa_1" xmlns="http://www.w3.org/2000/svg" xmlns:xlink="http://www.w3.org/1999/xlink" x="0px" y="0px"
	 viewBox="0 0 440.95 440.95" style="enable-background:new 0 0 440.95 440.95;" xml:space="preserve">
<g>
	<path d="M322.009,139.414c1.449,0,2.869-0.59,3.89-1.61c1.02-1.03,1.61-2.44,1.61-3.89s-0.591-2.87-1.61-3.89
		c-1.021-1.02-2.44-1.61-3.89-1.61c-1.45,0-2.86,0.59-3.891,1.61c-1.02,1.02-1.609,2.44-1.609,3.89s0.59,2.86,1.609,3.89
		C319.148,138.824,320.568,139.414,322.009,139.414z"/>
	<path d="M219.448,120.104c0.35,0.06,0.69,0.1,1.03,0.1c2.59,0,4.899-1.84,5.399-4.48c0.57-2.99-1.399-5.87-4.38-6.43
		c-2.99-0.56-5.86,1.4-6.43,4.38C214.508,116.664,216.468,119.534,219.448,120.104z"/>
	<path d="M179.858,127.884c0.34,0,0.68-0.03,1.03-0.1c2.98-0.56,4.94-3.44,4.38-6.42c-0.57-2.99-3.45-4.95-6.43-4.38
		c-2.99,0.56-4.95,3.44-4.38,6.42C174.958,126.044,177.268,127.884,179.858,127.884z"/>
	<path d="M200.158,124.044c0.34,0,0.69-0.03,1.03-0.1c2.99-0.56,4.95-3.44,4.38-6.43c-0.56-2.98-3.44-4.94-6.42-4.38
		c-2.99,0.57-4.95,3.44-4.39,6.43C195.258,122.204,197.568,124.044,200.158,124.044z"/>
	<path d="M280.368,131.634c0.351,0.06,0.69,0.09,1.03,0.09c2.59,0,4.899-1.84,5.399-4.47c0.57-2.99-1.399-5.87-4.38-6.43
		c-2.979-0.57-5.859,1.4-6.43,4.38C275.428,128.194,277.388,131.064,280.368,131.634z"/>
	<path d="M260.068,127.784c0.34,0.07,0.69,0.1,1.03,0.1c2.59,0,4.899-1.84,5.39-4.48c0.57-2.98-1.39-5.86-4.38-6.42
		c-2.98-0.57-5.86,1.39-6.42,4.38C255.118,124.344,257.078,127.224,260.068,127.784z"/>
	<path d="M300.678,135.474c0.35,0.07,0.689,0.1,1.029,0.1c2.59,0,4.9-1.84,5.4-4.48c0.56-2.99-1.4-5.86-4.38-6.43
		c-2.99-0.56-5.86,1.4-6.431,4.38C295.738,132.034,297.698,134.904,300.678,135.474z"/>
	<path d="M239.759,123.944c0.35,0.07,0.689,0.1,1.029,0.1c2.59,0,4.9-1.84,5.4-4.48c0.56-2.99-1.4-5.86-4.38-6.43
		c-2.99-0.56-5.87,1.4-6.431,4.38C234.808,120.504,236.778,123.384,239.759,123.944z"/>
	<path d="M139.238,135.564c0.34,0,0.68-0.03,1.03-0.09c2.99-0.57,4.95-3.44,4.38-6.43c-0.56-2.98-3.44-4.94-6.42-4.38
		c-2.99,0.57-4.95,3.44-4.39,6.43C134.338,133.734,136.648,135.564,139.238,135.564z"/>
	<path d="M159.548,131.724c0.34,0,0.68-0.03,1.03-0.09c2.98-0.57,4.94-3.45,4.38-6.43c-0.57-2.99-3.44-4.95-6.43-4.38
		c-2.98,0.56-4.94,3.44-4.38,6.42C154.648,129.884,156.958,131.724,159.548,131.724z"/>
	<path d="M118.938,139.414c1.45,0,2.87-0.59,3.89-1.61c1.02-1.03,1.61-2.44,1.61-3.89s-0.59-2.87-1.61-3.89s-2.44-1.61-3.89-1.61
		c-1.45,0-2.86,0.59-3.89,1.61c-1.02,1.02-1.61,2.44-1.61,3.89s0.59,2.86,1.61,3.89
		C116.078,138.824,117.488,139.414,118.938,139.414z"/>
	<path d="M211.482,196.985c-1.261-1.045-2.922-1.472-4.531-1.169l-25,4.73c-2.597,0.492-4.478,2.761-4.478,5.404v126.33
		c0,1.842,0.922,3.562,2.457,4.581l25,16.61c0.918,0.61,1.979,0.919,3.044,0.919c0.891,0,1.785-0.216,2.599-0.653
		c1.786-0.958,2.901-2.82,2.901-4.847V201.22C213.473,199.582,212.743,198.03,211.482,196.985z M202.473,338.633l-14-9.302V210.507
		l14-2.649V338.633z"/>
	<path d="M161.482,206.435c-1.261-1.045-2.924-1.472-4.531-1.169l-25,4.73c-2.597,0.492-4.478,2.761-4.478,5.404v83.67
		c0,1.842,0.922,3.562,2.457,4.581l25,16.61c0.918,0.61,1.979,0.919,3.044,0.919c0.891,0,1.785-0.216,2.599-0.653
		c1.786-0.958,2.901-2.82,2.901-4.847V210.67C163.473,209.032,162.743,207.48,161.482,206.435z M152.473,305.423l-14-9.302v-76.164
		l14-2.649V305.423z"/>
	<path d="M230.375,353.737c0.813,0.437,1.707,0.653,2.599,0.653c1.063,0,2.125-0.309,3.044-0.919l25-16.61
		c1.534-1.02,2.456-2.739,2.456-4.581V205.95c0-2.643-1.88-4.913-4.478-5.404l-25-4.73c-1.605-0.302-3.27,0.124-4.531,1.169
		c-1.262,1.045-1.991,2.598-1.991,4.235v147.67C227.473,350.917,228.588,352.779,230.375,353.737z M238.473,207.858l14,2.649
		v118.824l-14,9.302V207.858z"/>
	<path d="M280.375,320.527c0.813,0.437,1.707,0.653,2.599,0.653c1.063,0,2.125-0.309,3.044-0.919l25-16.61
		c1.534-1.02,2.456-2.739,2.456-4.581V215.4c0-2.643-1.88-4.913-4.478-5.404l-25-4.73c-1.609-0.303-3.271,0.124-4.531,1.169
		c-1.262,1.045-1.991,2.598-1.991,4.235v105.01C277.473,317.707,278.588,319.569,280.375,320.527z M288.473,217.308l14,2.649v76.164
		l-14,9.302V217.308z"/>
	<path d="M325.717,287.99c0.112,0.007,0.225,0.01,0.335,0.01c2.887,0,5.31-2.25,5.485-5.17l3.424-57
		c0.182-3.032-2.128-5.638-5.16-5.82c-3.045-0.185-5.638,2.129-5.82,5.161l-3.424,57
		C320.375,285.202,322.684,287.808,325.717,287.99z"/>
	<path d="M116.967,225.171c-0.183-3.033-2.809-5.34-5.82-5.161c-3.032,0.182-5.343,2.788-5.161,5.82l3.424,57
		c0.176,2.92,2.598,5.17,5.485,5.17c0.111,0,0.223-0.003,0.334-0.01c3.032-0.182,5.343-2.788,5.161-5.82L116.967,225.171z"/>
	<path d="M371.723,377.538c-0.354-1.867-1.646-3.419-3.418-4.104l-2.786-1.079c-22.789-8.841-37.782-29.921-38.765-54.154
		l6.272-4.166c9.205-6.115,15.35-15.899,16.859-26.846l15.962-115.726c0.348-2.517-1.074-4.943-3.439-5.872
		c-2.367-0.928-5.059-0.115-6.515,1.966l-1.015,1.45c-4.583-24.231-14.943-48.922-29.897-70.815
		c-18.745-27.441-43.218-47.879-68.909-57.551c-10.379-3.907-19.049-12.109-23.788-22.502L225.48,3.218
		C224.587,1.258,222.631,0,220.476,0s-4.11,1.258-5.004,3.218l-6.803,14.92c-4.739,10.394-13.41,18.595-23.788,22.502
		c-25.694,9.672-50.169,30.112-68.914,57.556c-14.955,21.895-25.313,46.587-29.894,70.818l-1.02-1.457
		c-1.458-2.082-4.152-2.893-6.515-1.966c-2.365,0.928-3.787,3.355-3.439,5.872l15.962,115.726
		c1.509,10.946,7.654,20.73,16.859,26.846l6.275,4.169c-0.983,24.228-15.977,45.307-38.761,54.15l-2.79,1.08
		c-1.772,0.686-3.064,2.238-3.418,4.104s0.281,3.784,1.679,5.071c40.871,37.622,93.989,58.341,149.57,58.341
		c55.582,0,108.7-20.719,149.57-58.341C371.443,381.322,372.078,379.405,371.723,377.538z M252.197,50.937
		c23.596,8.882,46.219,27.868,63.7,53.46c0.104,0.152,0.201,0.309,0.305,0.461c-18.741,2.106-37.656-4.652-50.82-18.546l-0.49-0.517
		c-1.772-1.872-4.612-2.26-6.822-0.933c-5.66,3.395-12.414,3.918-18.528,1.436c-6.115-2.483-10.592-7.567-12.282-13.947
		l-1.283-4.843V29.486C232.236,39.268,241.485,46.904,252.197,50.937z M188.756,50.936c10.712-4.032,19.96-11.667,26.221-21.449
		v38.02l-1.283,4.844c-1.69,6.38-6.167,11.464-12.283,13.947c-6.116,2.483-12.869,1.959-18.529-1.436
		c-2.212-1.327-5.05-0.939-6.824,0.935l-0.488,0.516c-13.163,13.895-32.081,20.654-50.823,18.546
		c0.103-0.151,0.199-0.306,0.302-0.457C142.532,78.806,165.157,59.818,188.756,50.936z M118.333,115.008
		c22.674,4.253,46.146-2.719,62.814-18.707c7.75,3.32,16.431,3.426,24.403,0.188c6.286-2.552,11.439-6.902,14.927-12.443
		c3.487,5.541,8.641,9.89,14.927,12.443c7.974,3.238,16.655,3.132,24.403-0.188c13.451,12.902,31.333,19.937,49.651,19.937
		c4.38,0,8.786-0.406,13.162-1.227c12.562,21.327,20.64,44.687,23.108,67.069l-8.796,12.566l-27.041-5.116v-15.957
		c0-2.643-1.88-4.913-4.478-5.404l-83.92-15.88c-0.676-0.128-1.37-0.128-2.046,0l-83.91,15.88c-2.597,0.492-4.477,2.761-4.477,5.404
		v15.956l-27.046,5.117l-8.789-12.555C97.69,159.705,105.769,136.34,118.333,115.008z M298.89,187.449l-77.395-14.642
		c-0.675-0.128-1.369-0.128-2.045,0l-77.391,14.641v-9.318l78.41-14.839l78.42,14.839V187.449z M101.958,285.686l-12.849-93.152
		l7.931,11.33c1.24,1.772,3.405,2.652,5.528,2.25l117.905-22.306l117.904,22.306c2.126,0.401,4.288-0.478,5.528-2.25l7.932-11.33
		l-12.849,93.152c-1.079,7.823-5.471,14.816-12.049,19.187l-106.467,70.725l-106.466-70.725
		C107.428,300.502,103.037,293.509,101.958,285.686z M220.475,429.95c-49.918,0-97.747-17.589-135.632-49.703
		c21.888-10.587,36.674-31.193,39.787-55.112l92.801,61.647c0.922,0.613,1.983,0.919,3.043,0.919s2.121-0.306,3.043-0.919
		l92.804-61.65c3.111,23.923,17.895,44.53,39.787,55.115C318.222,412.361,270.393,429.95,220.475,429.95z"/>
</g>
<g>
</g>
<g>
</g>
<g>
</g>
<g>
</g>
<g>
</g>
<g>
</g>
<g>
</g>
<g>
</g>
<g>
</g>
<g>
</g>
<g>
</g>
<g>
</g>
<g>
</g>
<g>
</g>
<g>
</g>
</svg>
